<?xml version="1.0" encoding="UTF-8" standalone="no"?>
<svg
   xmlns:dc="http://purl.org/dc/elements/1.1/"
   xmlns:cc="http://creativecommons.org/ns#"
   xmlns:rdf="http://www.w3.org/1999/02/22-rdf-syntax-ns#"
   xmlns:svg="http://www.w3.org/2000/svg"
   xmlns="http://www.w3.org/2000/svg"
   xmlns:sodipodi="http://sodipodi.sourceforge.net/DTD/sodipodi-0.dtd"
   xmlns:inkscape="http://www.inkscape.org/namespaces/inkscape"
   version="1.0"
   width="2745.8167pt"
   height="2223.6169pt"
   viewBox="0 0 2745.8167 2223.6169"
   preserveAspectRatio="xMidYMid meet"
   id="svg32"
   sodipodi:docname="logo-web.svg"
   inkscape:version="1.0.2 (e86c870879, 2021-01-15)"
   inkscape:export-filename="/home/maria/vim-kam-jdu/www/static/logo-web.png"
   inkscape:export-xdpi="30.015963"
   inkscape:export-ydpi="30.015963">
  <defs
     id="defs36" />
  <sodipodi:namedview
     pagecolor="#ffffff"
     bordercolor="#666666"
     borderopacity="1"
     objecttolerance="10"
     gridtolerance="10"
     guidetolerance="10"
     inkscape:pageopacity="0"
     inkscape:pageshadow="2"
     inkscape:window-width="1919"
     inkscape:window-height="1080"
     id="namedview34"
     showgrid="false"
     inkscape:zoom="0.15420393"
     inkscape:cx="2121.9288"
     inkscape:cy="1795.9154"
     inkscape:window-x="0"
     inkscape:window-y="0"
     inkscape:window-maximized="1"
     inkscape:current-layer="layer1"
     inkscape:document-rotation="0"
     fit-margin-top="0"
     fit-margin-left="0"
     fit-margin-right="0"
     fit-margin-bottom="0" />
  <metadata
     id="metadata2">
Created by potrace 1.16, written by Peter Selinger 2001-2019
<rdf:RDF>
  <cc:Work
     rdf:about="">
    <dc:format>image/svg+xml</dc:format>
    <dc:type
       rdf:resource="http://purl.org/dc/dcmitype/StillImage" />
    <dc:title />
  </cc:Work>
</rdf:RDF>
</metadata>
  <g
     inkscape:groupmode="layer"
     id="layer2"
     inkscape:label="Snail"
     style="display:inline"
     transform="translate(-187.94471,-235.0671)">
    <g
       id="g866"
       style="stroke:none">
      <path
         transform="matrix(0.1,0,0,-0.1,0,2912)"
         d="m 11379.934,26613.193 c -361.156,-263.513 -316.279,-726.682 -325.21,-1058.035 -4.332,-160.706 -1272.3266,-786.988 -1764.2008,-1402.971 C 8518.7707,23185.708 7976.6302,22088.236 8191,19588 c 12.2983,-143.438 86.0363,-214.415 -41.6608,-237.814 C 7259.9294,19187.213 6538.6561,18665.545 6205,18005 c -283.6769,-561.601 -518.4476,-1163.945 -676,-1726 -347.4568,-1239.524 -565.629,-2515.168 -732,-3844 -124.163,-991.71 -464.8321,-2743.6178 74.5708,-4722.915 793.3285,-2911.0569 6611.3072,-1361.8054 14916.6742,-520.7831 3759.907,380.7376 6342.922,384.0909 7145.071,166.3277 136.658,-37.0992 226.224,191.4933 133.793,274.8259 C 26952.294,7735.9698 26601.244,7797.1756 26315,7827 24573.123,8008.4899 21926.986,7713.3849 19835,7610 16393.599,7439.9277 13023.823,6694.4966 9348.506,6577.6806 7633.6277,6523.1751 6146.0796,6654.585 5512.6621,7689.9717 c -1084.9015,1773.3841 -117.6687,6198.7853 413.71,8466.1813 123.3023,526.131 505.0557,1515.967 769.0681,1836.162 491.9395,596.626 1144.0388,994.345 1675.9622,857.618 C 9285.1322,18615.066 9448.1547,17864.878 9341,17105 c -136.9163,-970.93 -836.724,-2278.611 -1664.5319,-2198.338 -792.8493,76.883 -1091.9549,641.112 -933.5498,1253.568 183.2198,708.401 473.2376,1168.573 945.4816,1145.144 443.4764,-22.002 700.6961,-448.868 556.1561,-891.021 -101.833,-311.51 -250.5156,-666.755 -494.556,-628.353 -474.6745,74.695 -60.7053,532.192 -169,711 -96.8507,159.913 -239.4528,-190.132 -261,-262 -139.8761,-466.542 43.9875,-873.559 377.7704,-901.605 484.3233,-40.695 875.2604,656.558 943.2296,1104.605 103.9902,685.495 -239.2375,1424.511 -923.3528,1368.961 -904.3236,-73.43 -1256.5438,-1096.038 -1377.6718,-1536.697 C 6053.4061,15227.737 6866.946,14442.513 7750,14523.101 c 1376.6114,125.631 1778.3367,1655.675 1969,2656.899 214.8275,1128.117 -447.015,1909.243 -1282.0013,2120.917 -22.7123,5.757 -19.6438,194.318 -20.4212,226.881 -58.2747,2441.121 418.3899,3723.149 1504.2434,4698.899 376.6041,338.417 1144.3871,927.938 1312.7331,918.63 86.671,-4.792 290.519,-251.995 392.804,-295.341 429.558,-182.035 1070.843,242.945 1149.163,707.819 71.137,422.235 -144.019,790.196 -304.916,944.095 -350.597,335.348 -783.874,335.144 -1090.671,111.293 z m 868.795,-434.59 c 217.583,-286.324 216.469,-567.439 -63.346,-797.495 -224.513,-184.59 -503.103,-117.541 -671.332,75.592 -209.849,240.914 -263.257,567.346 -37.051,795.3 215.825,217.493 582.243,175.953 771.729,-73.397 z"
         id="path4"
         sodipodi:nodetypes="ssssssssssssssssssssssssssssssssssssssssssssss"
         style="stroke:none;stroke-width:15;stroke-miterlimit:4;stroke-dasharray:none;stroke-opacity:1"
         inkscape:connector-curvature="0" />
      <path
         transform="matrix(0.1,0,0,-0.1,0,2912)"
         d="m 3298.3056,25332.801 c -252.4234,-153.354 -321.7834,-343.188 -419.3597,-589.593 -128.3354,-324.08 -172.6018,-897.079 249.1854,-1176.947 414.1872,-274.825 811.4831,304.487 986.2888,189.346 319.5168,-210.459 902.4809,-672.257 902.4809,-672.257 909.409,-632.731 1769.8047,-2456.358 1858.8427,-3731.495 15.1866,-217.491 -16.8267,-291.836 1.4189,-328.715 28.755,-58.122 96.8902,-70.991 124.1349,0.547 72.476,190.305 115.5278,725.502 89.8429,911.611 -209.8305,1520.398 -919.1515,2717.418 -1940.0812,3510.953 -95.7307,74.408 -170.7144,134.935 -290,220 -292.2254,208.39 -584.8816,403.33 -639.5903,575.71 -6.3166,19.903 40.204,121.314 46.5553,146.705 93.6591,374.421 -76.7982,736.247 -433.0242,888.334 -184.7871,78.893 -388.9215,145.576 -536.6944,55.801 z m 486.0869,-419.029 c 152.3532,-84.38 128.3743,-188.552 133.6075,-310.772 9.8244,-229.444 -48.4131,-393.924 -188.2913,-551.464 -65.3407,-73.591 -171.4882,-141.316 -229.1769,-168.975 -88.3175,-42.344 -142.9168,-44.844 -212,-8 -65.9171,35.156 -106.9109,75.047 -144,145 -41.911,79.047 -34.3798,409.473 -13.6925,514.816 33.0251,168.169 117.4004,386.47 303.8932,433.917 118.8453,30.236 258.008,-3.76 349.66,-54.522 z"
         id="path6"
         sodipodi:nodetypes="ssssssssssssssssssssssss"
         style="stroke:none;stroke-width:15;stroke-miterlimit:4;stroke-dasharray:none;stroke-opacity:1"
         inkscape:connector-curvature="0" />
      <path
         transform="matrix(0.1,0,0,-0.1,0,2912)"
         id="path8"
         style="stroke:none;stroke-width:15;stroke-miterlimit:4;stroke-dasharray:none;stroke-opacity:1"
         d="m 10935,15552.002 c -763.498,-2286.497 -702.551,-2413.525 -697.998,-6397.002 0.815,-712.8569 174.113,-1410.193 322.998,-2069.004 23.366,-103.3924 113.459,-13.2525 110.365,45.189 -37.023,699.3438 -115.254,1273.7973 -131.864,2107.727 -3.884,195.0023 0.322,421.7406 0.417,459.7407 8.632,3466.5573 7.285,3655.0653 712.078,5724.3403 2203.635,6469.881 6532.951,6919.657 9484.456,6905.95 3791.068,-17.605 7191.885,-2450.231 7239.548,-6303.943 32.481,-2626.16 -2132.07,-7197.6838 -7157.007,-7545 -4273.441,-295.3739 -4428.591,-521.0259 -5080.156,376.0327 -185.898,255.9399 -1709.351,1315.9953 -640.192,4873.8603 705.614,2348.087 2325.72,4261.642 5401.222,4386.921 2208.285,89.954 3963.332,-1151.579 3821.128,-3451.819 -104.888,-1696.64 -2013.919,-3601.522 -3241.244,-3656.853 -1059.309,-47.756 -2225.012,447.322 -2459.589,1315.559 -351.888,1302.432 1253.55,2548.633 2150.451,2589.708 917.998,42.041 789.246,-861.37 517.249,-1203.733 -232.124,-292.175 33.073,-657.622 354.025,-239.976 571.22,743.312 149.952,2056.117 -959.534,1880.256 -1075.598,-170.489 -2717.24,-1608.858 -2557.409,-2972.549 114.826,-979.708 1610.026,-1983.072 3032.921,-1851.006 1594.75,148.016 3387.607,2218.774 3540.137,4138.594 207.244,2608.481 -1648.42,3863.568 -3917.002,3897.012 -3107.655,45.814 -5374.475,-2213.758 -5985,-4574.004 -672.514,-2599.89 -760.191,-3717.748 526.984,-5300.4296 1174.956,-1444.7013 1714.234,-830.2411 5438.016,-628.0745 5192.489,281.9036 7563.759,4736.9521 7567.998,7965.5011 5.26,4006.153 -3669.772,6685.316 -7248.003,6690 -5880.362,7.697 -8510.621,-2268.43 -10144.995,-7162.998 z"
         sodipodi:nodetypes="ssssssssssssssssssssssssssssss"
         inkscape:connector-curvature="0" />
      <path
         transform="matrix(0.1,0,0,-0.1,0,2912)"
         d="M 13120,5775 C 10404.492,5614.5845 6117.1664,5320.4285 3370.8644,5157.1418 2879.8186,5127.9457 2384.5009,4859.2681 2157.207,4812.3874 2135.7274,4807.9572 1856.2275,4677.0875 1881,4576 c 38.9736,-159.0369 8.128,166.0896 1668.7283,301.376 3251.7722,264.9168 6260.8389,387.4324 9037.7187,489.1529 1114.501,40.8255 11833.837,882.463 15750.299,115.3174 1238.08,-242.5116 1389.433,238.6366 98.011,367.2665 C 24037.415,6287.2021 22004.382,6299.8344 13120,5775 Z"
         id="path28"
         sodipodi:nodetypes="sssssssss"
         style="stroke:none;stroke-width:15;stroke-miterlimit:4;stroke-dasharray:none;stroke-opacity:1"
         inkscape:connector-curvature="0" />
    </g>
  </g>
  <g
     transform="matrix(0.1,0,0,-0.1,-187.94471,2676.9329)"
     id="g30"
     stroke="none"
     fill="#000000" />
  <g
     inkscape:groupmode="layer"
     id="layer1"
     inkscape:label="Text"
     style="display:inline"
     transform="translate(-187.94471,-235.0671)" />
</svg>
